<svg id="Слой_1" data-name="Слой 1" xmlns="http://www.w3.org/2000/svg" viewBox="0 0 155 193.05"><defs><style>.cls-1{fill:#4673b7;}.cls-2,.cls-4{fill:#2c4d91;}.cls-3{fill:#a13348;}.cls-4{font-size:24.62px;font-family:CaviarDreams, Caviar Dreams;letter-spacing:0.06em;}</style></defs><title>1 kar</title><polygon class="cls-1" points="81.54 11.65 79.58 53.04 116.6 81.34 81.54 11.65"/><polygon class="cls-2" points="81.54 11.65 79.58 53.04 42.56 81.34 81.54 11.65"/><path class="cls-3" d="M102.56,89.59c.16-2.23.09-4.24-.57-5A35.47,35.47,0,0,1,98.59,80c.92,0,3.68,0,3.51-1.27a2.34,2.34,0,0,0-1.37-1.9s-3.27-.95-3.27-.1v1.4c-4.66-7.83-6.11-8-6.11-8h-.11c-3.15-.67-10.27-.73-11.59-.74h-.21c-1.32,0-8.44.07-11.59.74h-.11s-1.45.21-6.11,8v-1.4c0-.85-3.27.1-3.27.1A2.34,2.34,0,0,0,57,78.75C56.82,80,59.58,80,60.5,80a35.47,35.47,0,0,1-3.4,4.53c-.66.8-.73,2.81-.57,5a.14.14,0,0,0-.06.12c0,1.41,10.37,9.41,23.11,9.41,12,0,21.88-7.07,22.93-9.11h0v0a.64.64,0,0,0,.07-.24A.16.16,0,0,0,102.56,89.59ZM72.69,91.92V89.6H86.4v2.32Zm26.25-9.27a5.69,5.69,0,0,1,.73,4.21,3.93,3.93,0,0,1-.41.85,4.89,4.89,0,0,1-3,.42l-.74-.42L90.08,88a12.92,12.92,0,0,1,1.69-2.31,34.15,34.15,0,0,1,3.69-1.9ZM63.1,77.8c.31-2.42,3.9-6.53,3.9-6.53l.64-.11a113.67,113.67,0,0,1,11.8-.28h.21a113.71,113.71,0,0,1,11.8.28l.64.11s3.59,4.11,3.9,6.53a.66.66,0,0,1-.52.72c-3.07.78-13.84.42-15.82.35h-.21c-2,.07-12.75.43-15.83-.35A.66.66,0,0,1,63.1,77.8Zm-3,4.85,3.48,1.16a34.15,34.15,0,0,1,3.69,1.9A12.92,12.92,0,0,1,69,88l-5.48-.31-.74.42a4.89,4.89,0,0,1-3-.42,3.93,3.93,0,0,1-.41-.85A5.69,5.69,0,0,1,60.15,82.65Z"/><path class="cls-2" d="M79.55,103.34h0c-18.4,0-33.69-13.51-36.83-17.6l36.87,65.93V103.34h0Z"/><path class="cls-1" d="M116.37,85.9c-3.39,4.21-18.58,17.44-36.79,17.44v48.33Z"/><text class="cls-4" transform="translate(15.37 180.77)">ETHER KAR</text></svg>