<svg id="Слой_1" data-name="Слой 1" xmlns="http://www.w3.org/2000/svg" viewBox="0 0 155 193.05"><defs><style>.cls-1{fill:#408963;}.cls-2{fill:#33684a;}.cls-3{fill:#b73b58;}.cls-4{font-size:24.62px;fill:#2e6045;font-family:CaviarDreams, Caviar Dreams;letter-spacing:0.06em;}</style></defs><title>logo ether car</title><polygon class="cls-1" points="79.55 9.3 79.55 50.69 116.57 78.99 79.55 9.3"/><polygon class="cls-2" points="79.55 9.3 79.55 50.69 42.54 78.99 79.55 9.3"/><path class="cls-3" d="M102.53,87.24c.17-2.23.09-4.24-.57-5a36.1,36.1,0,0,1-3.39-4.53c.91,0,3.68,0,3.5-1.27a2.34,2.34,0,0,0-1.37-1.9s-3.27-1-3.27-.1v1.4c-4.66-7.83-6.11-8-6.11-8h-.11C88.06,67.09,80.94,67,79.62,67h-.21c-1.31,0-8.44.07-11.59.74h-.11s-1.45.21-6.11,8V74.4c0-.85-3.27.1-3.27.1A2.34,2.34,0,0,0,57,76.4c-.17,1.23,2.59,1.29,3.51,1.27a36.18,36.18,0,0,1-3.4,4.53c-.65.8-.73,2.81-.57,5a.17.17,0,0,0-.06.12c0,1.41,10.37,9.41,23.11,9.41,12,0,21.88-7.07,22.93-9.11h0V87.6a.49.49,0,0,0,.07-.24A.16.16,0,0,0,102.53,87.24ZM72.67,89.57V87.25h13.7v2.32ZM98.91,80.3a5.72,5.72,0,0,1,.74,4.21,4.48,4.48,0,0,1-.42.85,4.89,4.89,0,0,1-3,.42c-.21-.11-.73-.42-.73-.42l-5.48.31a12.72,12.72,0,0,1,1.68-2.32,35.61,35.61,0,0,1,3.69-1.89ZM63.08,75.45c.3-2.42,3.9-6.53,3.9-6.53l.63-.11a113.75,113.75,0,0,1,11.8-.28h.21a113.89,113.89,0,0,1,11.81.28l.63.11S95.65,73,96,75.45a.66.66,0,0,1-.51.72c-3.08.78-13.85.42-15.83.35h-.21c-2,.07-12.75.43-15.82-.35A.64.64,0,0,1,63.08,75.45Zm-3,4.85,3.48,1.16a35.61,35.61,0,0,1,3.69,1.89A12.9,12.9,0,0,1,69,85.67l-5.48-.31-.74.42a4.89,4.89,0,0,1-3-.42,4.46,4.46,0,0,1-.41-.85A5.69,5.69,0,0,1,60.12,80.3Z"/><path class="cls-2" d="M79.52,101h0c-18.4,0-33.69-13.51-36.83-17.6l36.87,65.93V101h0Z"/><path class="cls-1" d="M116.34,83.55C113,87.76,97.76,101,79.55,101v48.33Z"/><text class="cls-4" transform="translate(15.35 179.77)">ETHER KAR</text></svg>