<svg id="Слой_1" data-name="Слой 1" xmlns="http://www.w3.org/2000/svg" xmlns:xlink="http://www.w3.org/1999/xlink" viewBox="0 0 155 193.05"><defs><style>.cls-1{font-size:24.62px;font-family:Rotonda-Regular, Rotonda-Regular;}.cls-1,.cls-2{fill:#0f195a;}.cls-3{fill:url(#Безымянный_градиент_101);}.cls-4{fill:url(#Безымянный_градиент_208);}.cls-5{fill:url(#Безымянный_градиент_77);}.cls-6{fill:url(#Безымянный_градиент_77-2);}</style><linearGradient id="Безымянный_градиент_101" x1="55.48" y1="51.57" x2="84.04" y2="50.95" gradientUnits="userSpaceOnUse"><stop offset="0" stop-color="#1f3483"/><stop offset="0.39" stop-color="#203684"/><stop offset="0.53" stop-color="#243d88"/><stop offset="0.63" stop-color="#2b4890"/><stop offset="0.71" stop-color="#35599a"/><stop offset="0.78" stop-color="#436fa7"/><stop offset="0.84" stop-color="#538bb8"/><stop offset="0.9" stop-color="#67abcc"/><stop offset="0.95" stop-color="#7dd0e3"/><stop offset="0.99" stop-color="#96fafc"/><stop offset="1" stop-color="#9ff"/></linearGradient><linearGradient id="Безымянный_градиент_208" x1="78.92" y1="71.95" x2="78.26" y2="94.95" gradientUnits="userSpaceOnUse"><stop offset="0" stop-color="#263d8f"/><stop offset="0.64" stop-color="#973d60"/><stop offset="1" stop-color="#d23d48"/></linearGradient><linearGradient id="Безымянный_градиент_77" x1="49.53" y1="128.81" x2="76.79" y2="110.32" gradientUnits="userSpaceOnUse"><stop offset="0" stop-color="#443d8f"/><stop offset="0.11" stop-color="#5f3d81"/><stop offset="0.31" stop-color="#883d6d"/><stop offset="0.5" stop-color="#a83d5d"/><stop offset="0.68" stop-color="#bf3d51"/><stop offset="0.85" stop-color="#cd3d4a"/><stop offset="1" stop-color="#d23d48"/></linearGradient><linearGradient id="Безымянный_градиент_77-2" x1="72.65" y1="131.3" x2="108.54" y2="117.2" xlink:href="#Безымянный_градиент_77"/></defs><title>2 kar</title><text class="cls-1" transform="translate(23.33 183.98)">ETHER KAR</text><polygon class="cls-2" points="78.41 16.63 78.41 58.02 115.43 86.31 78.41 16.63"/><polygon class="cls-3" points="78.41 16.63 78.41 58.02 41.39 86.31 78.41 16.63"/><path class="cls-4" d="M101.39,92.61c.16-2.23.08-4.24-.57-5A34.78,34.78,0,0,1,97.42,83c.91,0,3.68,0,3.5-1.27a2.34,2.34,0,0,0-1.37-1.9s-3.26-1-3.26-.1v1.4c-4.66-7.83-6.12-8-6.12-8h-.1c-3.15-.67-10.28-.73-11.59-.74h-.21c-1.32,0-8.45.07-11.6.74h-.1s-1.46.21-6.12,8v-1.4c0-.85-3.26.1-3.26.1a2.34,2.34,0,0,0-1.37,1.9c-.18,1.23,2.59,1.29,3.5,1.27a34.78,34.78,0,0,1-3.4,4.53c-.65.8-.73,2.81-.56,5a.14.14,0,0,0-.06.12c0,1.41,10.37,9.41,23.11,9.41,12,0,21.88-7.07,22.92-9.11h0v0a.64.64,0,0,0,.07-.24A.21.21,0,0,0,101.39,92.61ZM71.52,94.94V92.63h13.7v2.31Zm26.24-9.27a5.68,5.68,0,0,1,.74,4.22,4.39,4.39,0,0,1-.42.84,4.86,4.86,0,0,1-3,.42l-.74-.42L88.91,91a12.92,12.92,0,0,1,1.69-2.31,34.15,34.15,0,0,1,3.69-1.9ZM61.93,80.82c.3-2.42,3.9-6.53,3.9-6.53l.63-.11a113.89,113.89,0,0,1,11.81-.28h.21a113.75,113.75,0,0,1,11.8.28l.63.11s3.6,4.11,3.9,6.53a.64.64,0,0,1-.51.72c-3.07.78-13.85.42-15.82.35h-.21c-2,.07-12.76.43-15.83-.35A.65.65,0,0,1,61.93,80.82Zm-3,4.85,3.48,1.16a34.15,34.15,0,0,1,3.69,1.9A12.74,12.74,0,0,1,67.83,91l-5.48-.31-.74.42a4.86,4.86,0,0,1-3-.42,4.39,4.39,0,0,1-.42-.84A5.68,5.68,0,0,1,59,85.67Z"/><path class="cls-5" d="M78.38,106.36h0c-18.4,0-33.7-13.51-36.84-17.6l36.88,65.93V106.36Z"/><path class="cls-6" d="M115.2,88.92c-3.4,4.21-18.58,17.44-36.79,17.44v48.33Z"/></svg>